<svg xmlns="http://www.w3.org/2000/svg" version="1.1" xmlns:xlink="http://www.w3.org/1999/xlink" xmlns:svgjs="http://svgjs.dev/svgjs" width="1000" height="1000" viewBox="0 0 1000 1000"><rect width="1000" height="1000" fill="#ffffff"></rect><g transform="matrix(0.7,0,0,0.7,149.57575757575756,252.55019083266902)"><svg viewBox="0 0 396 280" data-background-color="#ffffff" preserveAspectRatio="xMidYMid meet" height="707" width="1000" xmlns="http://www.w3.org/2000/svg" xmlns:xlink="http://www.w3.org/1999/xlink"><g id="tight-bounds" transform="matrix(1,0,0,1,0.2400000000000091,-0.00010796756379249928)"><svg viewBox="0 0 395.52 280" height="280" width="395.52"><g><svg viewBox="0 0 395.52 280" height="280" width="395.52"><g><svg viewBox="0 0 395.52 280" height="280" width="395.52"><g><svg viewBox="0 0 395.52 280" height="280" width="395.52"><g><svg viewBox="0 0 395.52 280" height="280" width="395.52"><g transform="matrix(1,0,0,1,104.53504196836559,114.34610692996908)"><svg viewBox="0 0 186.4499160632688 51.30778614006183" height="51.30778614006183" width="186.4499160632688"><g><svg xmlns="http://www.w3.org/2000/svg" xmlns:xlink="http://www.w3.org/1999/xlink" version="1.1" x="0" y="0" viewBox="6.194999999999999 40.169 91.96799999999999 25.307999999999993" enable-background="new 0 0 100 100" xml:space="preserve" height="51.30778614006183" width="186.4499160632688" class="icon-k$-0" data-fill-palette-color="accent" id="k$-0"><path d="M69.167 52.73l-5.141-1.101-0.615 1.028-3.165 5.481 1.168-0.103 2.268-0.206 0.051-0.004 1.077-1.011-0.987 0.888 1.079-0.973L69.167 52.73zM76.231 53.52l0.163-0.444 0.287-0.582 0.012-0.024 0.16-0.227 0.034-0.062 0.423-0.604 0.09-0.106 0.014-0.019 0.012-0.011 0.348-0.409 0.484-0.473 0.504-0.421 1.008-0.644 0.021-0.013 1.01-0.462 0.925-0.287 0.405-0.074-5.466-2.126-0.796 0.517-0.932 0.704-1.781 1.523-1.711 1.657-0.008 0.008-1.212 1.397 3.323 0.667L76.231 53.52zM81.157 45.641l2.315-0.081 2.39 0.021 2.502 0.143 2.615 0.267 0.686 0.11-1.915-0.49-2.118-0.337-2.202-0.184-2.242-0.062-2.275 0.031-2.244 0.093-2.172 0.111-1.132 0.061 0.354 0.157 0.551 0.31 0.455 0.227 2.175-0.214L81.157 45.641zM40.167 46.223l0.603 0.258c0.068 0.022 0.115 0.086 0.115 0.162 0 0-0.002 0.021-0.002 0.022l-0.048 0.545-0.003 0.113 0.616-0.05 0.42-0.055v-0.359c0-0.101 0.084-0.183 0.183-0.183l0.908-0.028 0.535-0.034 0.051-0.217 0.041-0.293-0.026 0.024-0.021-0.291-0.015-0.084-0.41-0.1-0.59-0.072h-0.631l-0.364 0.017-0.308 0.04 0.026 0.011-0.643 0.328L40.167 46.223zM10.474 59.712l-0.034 0.003 0.002-0.005L10.474 59.712l0.01-0.01 0.006-0.011-0.041 0.01-0.007 0.008 0.004-0.007-2.083 0.492c-0.427 0.62-0.252 1.035-0.283 1.605l1.203-1.029L10.474 59.712zM8.836 59.604l1.846-0.437c0.003-0.001 0.008-0.001 0.011-0.002l-0.003-0.016-0.014-0.059-0.033-0.052-0.013 0.025-0.165-0.187-0.518-0.652c-0.027 0.004-0.054 0.009-0.084 0.009H8.025C8.401 58.679 9.168 59.064 8.836 59.604zM32.209 50.999l-1.112-0.551-1.135-0.407-1.115-0.286-1.012-0.165-0.849-0.08-0.348-0.021h-0.276c-0.024 0-0.045-0.012-0.067-0.021l-0.182 0.361c2.361-0.125 4.72 0.765 6.191 2.696 0.03-0.029 0.066-0.051 0.108-0.051l1.375-0.156L33.195 51.7l0.002-0.003-0.481-0.38-0.498-0.355-0.001 0.004 0.007 0.007-0.008-0.004L32.209 50.999zM25.68 49.869c0-0.002-0.002-0.004-0.002-0.007 0-0.031 0.004-0.063 0.021-0.09l0.182-0.363-0.406 0.007-0.908 0.113-0.828 0.204-0.755 0.276-0.704 0.325-0.622 0.385-0.576 0.429-0.522 0.425 0.021 0.007-0.006 0.006h0.001l-0.891 0.979-0.694 0.951-0.513 0.848-0.204 0.356-0.104 0.142-0.063 0.125 0.025-0.007-0.665 3.304c-0.011 0.06-0.05 0.111-0.109 0.134l-7.872 3.669 0.016 0.048 9.625 0.164C16.824 54.567 21.142 50.35 25.68 49.869zM94.352 59.466l-1.076 0.284-0.416 1.049-0.186 0.503 1.068 0.143 1.802-2.054 0.035-0.035 0.825-0.527-0.842 0.348L94.352 59.466zM9.497 57.658L8.51 56.462l0.005 0.032L8.231 56.34c-0.029-0.015-0.026-0.05-0.044-0.073l-1.992 1.009c0.166 0.292 0.324 0.45 0.706 0.572h2.747L9.497 57.658zM76.033 56.293l0.299-1.129 0.432-1.016 0.524-0.904 0.617-0.791 0.669-0.697 0.71-0.595 0.73-0.504 0.75-0.408 0.729-0.328 0.691-0.256 0.636-0.186 0.242-0.032-0.066-0.224-0.067-0.182-0.575 0.098-0.888 0.246-0.972 0.357-0.979 0.508-0.481 0.294-0.474 0.326 0.025 0.012-0.028-0.01-0.013 0.009 0.01-0.01-0.001-0.001-0.651 0.621-0.165 0.194 0.003 0.001-0.21 0.268-0.313 0.454-0.367 0.642-0.198 0.476-0.118 0.335c-0.034 0.069-0.104 0.123-0.182 0.123-0.016 0-0.028-0.002-0.039-0.004l-6.469-1.205c-0.021 0.02-0.05 0.02-0.076 0.03l-4.767 4.355-1.024 0.96c-0.014 0.021-0.033 0.016-0.053 0.023l-0.028 0.026c-0.034 0.022-0.071 0.035-0.117 0.045l-3.77 0.333-0.028 0.05c-0.026 0.054-0.088 0.089-0.148 0.089l-21.498 1.915 1.296 0.439 2.338 0.734 22.385-0.102 0.368-0.021 0.311-0.046-0.028-0.022 0.004-0.002v-0.001l0.037-0.016 9.609-4.187c0.026-0.013 0.056-0.019 0.082-0.019 0.074 0 0.146 0.043 0.176 0.115 0.014 0.027 0.016 0.056 0.016 0.081 0 0.074-0.043 0.145-0.113 0.177l-9.521 4.154 11.063-0.028-0.313-1.42-0.175-1.507v-1.387L76.033 56.293zM38.673 43.58c0.025-0.017 0.052-0.024 0.081-0.022 0.042-0.002 0.083 0.017 0.122 0.047 0.04 0.04 0.062 0.097 0.062 0.155 0 0.012 0 0.022-0.002 0.037l-0.612 2.504-0.284 1.226 0.742-0.059 0.611-0.068 0.608-4.08c0-0.077 0.054-0.128 0.111-0.151l0.854-0.35 0.922-0.316 0.986-0.308 1.067-0.277 2.287-0.479 2.471-0.36 2.605-0.234 2.698-0.062 2.717 0.122 2.508 0.289c0.016-0.011 0.026-0.026 0.045-0.033 0.015-0.002 0.03-0.006 0.047-0.006 0.054 0 0.098 0.026 0.135 0.062l0.555 0.036 0.738 0.062 0.852 0.103 0.943 0.143 1.035 0.184 1.099 0.215 2.369 0.543 2.491 0.685 2.533 0.819 2.471 0.953 0.042 0.019 1.901-0.102 2.172-0.113 2.246-0.093 2.276-0.029 2.267 0.06 2.226 0.194 2.143 0.339 2.02 0.51c0.095 0.021 0.152 0.105 0.15 0.19 0 0.015-0.002 0.027-0.002 0.043-0.021 0.088-0.098 0.142-0.177 0.146l1.914 0.308 1.872 0.433 0.698 0.149-0.24-0.964c-0.004-0.015-0.006-0.029-0.006-0.045 0-0.047 0.013-0.102 0.056-0.139l0.21-0.164-0.523-0.709-0.407-0.518-1.247 0.289c-0.02 0.004-0.033 0.006-0.048 0.006-0.072-0.002-0.135-0.045-0.174-0.105-0.013-0.027-0.021-0.058-0.021-0.089 0-0.05 0.017-0.104 0.058-0.141l1.736-1.614-0.302 0.109c-0.021 0.008-0.041 0.008-0.058 0.008-0.056 0-0.105-0.022-0.146-0.056-0.037-0.035-0.06-0.088-0.061-0.146l-2.208 0.698c-0.015 0.002-0.028 0.002-0.043 0.002-0.05 0-0.102-0.015-0.135-0.05-0.043-0.033-0.066-0.089-0.066-0.146 0-0.008-0.004-0.025 0.003-0.038l0.069-0.229-1.769 0.292-0.315 0.057 0.249 0.165c0.051 0.033 0.086 0.091 0.086 0.151 0 0 0 0.017 0 0.021 0 0.07-0.037 0.134-0.099 0.169L89.14 44.75c-0.022 0.008-0.048 0.017-0.076 0.017-0.015 0-0.025-0.002-0.029-0.004l-1.64-0.132-1.734-0.194-3.608-0.564-1.825-0.378-1.823-0.43-1.776-0.49-1.702-0.564-0.759-0.275-0.694-0.277-0.757-0.267-0.438-0.111-0.251-0.077-0.14-0.025-0.796 0.499c-0.028 0.017-0.062 0.027-0.095 0.027-0.015 0-0.025-0.002-0.029-0.002l-1.536-0.186-1.588-0.182-3.31-0.35L61.1 40.485l-3.472-0.213-3.463-0.103-3.401 0.052-3.276 0.225-1.557 0.194-1.493 0.244-0.79 0.205-0.871 0.246-1.873 0.573-2.02 0.666-2.14 0.734-4.375 1.658-2.111 0.858-1.519 0.625-0.044 0.019 1.466 0.438L38.673 43.58zM94.554 52.169c-0.01 0.002-0.019 0-0.024 0-0.062 0-0.118-0.037-0.146-0.083-0.023-0.028-0.033-0.066-0.033-0.102 0-0.028 0.006-0.06 0.019-0.084l1.266-2.845 0.651-1.507-2.19-0.586-2.478-0.438-2.53-0.277-2.561-0.132-2.54-0.011-2.51 0.081-2.428 0.153-1.393 0.094 5.268 2.113 0.161-0.006c0.043-0.001 0.083 0.014 0.116 0.037l0.587-0.109 0.978-0.06 1.019 0.05 1.037 0.175 1.006 0.246 0.957 0.349 0.882 0.44 0.024 0.013 0.738 0.512c0.054 0.037 0.082 0.099 0.08 0.163 0 0.039-0.01 0.077-0.031 0.116-0.041 0.054-0.103 0.08-0.165 0.08-0.041 0-0.08-0.012-0.115-0.03l-0.37-0.297-0.336-0.232-0.005 0.029-0.012-0.007-0.827-0.422-0.909-0.335-0.981-0.246-0.989-0.164-0.991-0.051-0.93 0.051-0.466 0.087 0.201 0.484 0.948-0.04 1.262 0.062 1.286 0.194 0.638 0.176 0.639 0.236 0.627 0.318 0.607 0.38 0.598 0.463 0.596 0.555 0.557 0.657 0.522 0.749 0.514 0.872 0.461 0.973c0.015 0.026 0.015 0.054 0.015 0.072l-0.001 0.65 0.013 0.3 0.688 0.035 0.603 0.008 1.014-0.861 1.084-1.001 1.032-1.071 0.538-0.641 0.338-0.436v-0.015L94.554 52.169zM13.506 59.82l3.593-1.674 0.654-3.254 0.014-0.047 0.165-0.308 0.216-0.381 0.533-0.87 0.719-0.975 0.887-0.976 0.019-0.031 1.141-0.914 0.669-0.41 0.731-0.35 0.803-0.276 0.873-0.206 0.937-0.124 0.545 0.021 0.087-0.002c0.033-0.022 0.071-0.037 0.112-0.037 0.029 0 0.06 0.006 0.09 0.022 0.005 0.002 0.007 0.008 0.011 0.01l0.057-0.001 0.082-0.06 0.748-0.606 0.026-0.008 1.016-0.576 0.354-0.155 0.396-0.203 0.597-0.245 0.077-0.021-0.18-0.055-0.363-0.108-0.854-0.237 0.013 0.009-2.59 0.572-2.53 0.717-2.57 0.889-1.332 0.521-0.709 0.271-0.65 0.279 0.019 0.005 0.007 0.002-1.285 1.21L16.6 51.267l-5.285 2.893c-0.031 0.019-0.066 0.027-0.099 0.027-0.004 0-0.008-0.003-0.012-0.003l-0.181 0.1-0.142 0.063c-0.022 0.011-0.043 0.012-0.065 0.012h-0.04c-0.008 0-0.015-0.006-0.022-0.007l-0.032 0.021-0.652 0.489-0.35 0.28-0.316 0.291 0.004 0.003 0.004-0.002L9.41 55.437l0.025 0.016-0.051 0.061 0.234-0.08 0.035-0.01 6.024-1.004c0.01-0.002 0.025-0.007 0.042-0.007 0.092 0 0.168 0.07 0.181 0.165 0.002 0.013 0.004 0.026 0.004 0.041 0 0.091-0.072 0.165-0.163 0.182l-2.969 0.467L9.73 55.778l0.02 0.022-0.783 0.277c-0.015 0.013-0.024 0.031-0.044 0.037l-0.177 0.062c0.005 0.005 0.01 0.009 0.014 0.013l1.987 2.436 0.163 0.182 0.025 0.026 0.094 0.146c0.011 0.021 0.023 0.045 0.023 0.07l0.031 0.222c0.002 0.015 0.004 0.027 0.004 0.037 0 0.035-0.015 0.062-0.029 0.089l-0.124 0.214-0.159 0.271c-0.002 0.044-0.039 0.058-0.041 0.064l-1.808 1.566-0.271 0.241 0.69-0.03 1.86-0.851L13.506 59.82zM16.354 50.938l-0.005-0.002-0.031-0.007 0.427-0.406-0.585 0.281-1.617 0.921-1.638 1.063-0.286 0.191 1.262-0.679L16.354 50.938zM71.048 50.784l0.178-0.204 1.784-1.718 1.27-1.069 0.401-0.344 0.059-0.043 0.046-0.039 1.043-0.771-10.24 1.637-0.916 1.92-0.474 1.031 5.44 1.085L71.048 50.784zM37.397 60.098l13.957-1.184 8.345-0.728 3.921-6.646-2.686-0.593-4.278-0.855c-0.021-0.006-0.033-0.023-0.051-0.034l-21.898 2.64 1.477 4.1L37.397 60.098zM64.839 47.863l-2.637-1.898-1.458 0.116c-0.019 0.015-0.033 0.033-0.057 0.042-0.017 0.004-0.033 0.006-0.047 0.006-0.037 0-0.069-0.015-0.099-0.032l-10.51 0.834-7.988 0.653-1.35 0.176v0c-0.013 0.002-0.023 0.002-0.033 0.002-0.051 0-0.096-0.022-0.123-0.049-0.002-0.001-0.001-0.004-0.002-0.005l-2.682 0.22c-0.007 0.019-0.007 0.039-0.019 0.056l-3.197 4.26 22.053-2.59L64.839 47.863zM37.315 60.692c-0.059 0-0.108-0.034-0.145-0.079 0 0-0.145-0.292-0.133-0.308l-2.798-7.634c-0.003-0.001-0.006-0.001-0.009-0.001l-0.001-0.001c-0.001 0-0.001 0.001-0.002 0.001-0.008 0-0.017 0.002-0.027 0.002-0.018 0-0.029-0.014-0.045-0.02l-1 0.091-0.359 0.041 0.307 0.359 0.514 0.771 0.473 0.914 0.38 1.094v0.025l0.237 1.255v0.019l0.05 1.437-0.05 0.81-0.124 0.851-0.186 0.914L34.2 61.938l6.992-0.01C41.191 61.929 37.321 60.692 37.315 60.692zM34.258 52.111l2.905-4.024-0.545 0.031-1.026-0.021-1.898-0.172-1.822-0.268-0.946-0.146-0.775-0.094-0.199 0.065-0.206 0.081-0.42 0.165-0.591 0.266-0.613 0.326-0.84 0.529-0.368 0.267L27 49.12l0.872 0.093 1.039 0.165 1.139 0.288 1.183 0.409 1.16 0.573 0.025 0.013 1.038 0.74 0.021 0.021 0.728 0.761L34.258 52.111zM57.7 49.889l1.542 0.327-0.19-0.132-0.022-0.021-0.173-0.173c-0.024-0.025-0.037-0.049-0.05-0.074l-0.03-0.09c-0.007-0.021-0.009-0.039-0.009-0.058 0-0.001 0.001-0.003 0.001-0.005L57.7 49.889zM65.525 47.817l10.51-1.67-0.663-0.328-0.952-0.444h-0.022c-0.056 0-0.102-0.03-0.136-0.072l-8.561 0.445-2.893 0.161 2.698 1.867C65.52 47.787 65.516 47.806 65.525 47.817zM64.818 48.898l0.27-0.574-0.885 0.188c0.021 0.029 0.046 0.057 0.045 0.096v0.037l-0.021 0.157-0.013 0.047-0.072 0.154-0.226 0.458c0.007 0.016 0.021 0.026 0.022 0.043 0.002 0.015 0.004 0.027 0.004 0.042 0 0.089-0.068 0.158-0.153 0.174l-0.325 0.663-0.164 0.321c-0.022 0.033-0.05 0.06-0.083 0.07L62.95 50.93c-0.021 0.009-0.043 0.022-0.072 0.022l-0.077 0.006 0.929 0.188L64.818 48.898zM62.965 50.515l-0.015 0.003 0.005-0.008 0.022-0.003 0.021-0.012 0.066-0.125-0.11 0.139 0.158-0.297 0.205-0.416-2.842 0.437 1.788 0.331 0.158 0.053 0.12 0.016-0.021-0.029h0.004l0.018 0.029 0.007 0.001 0.144-0.014 0.097-0.01-0.034-0.013 0.16-0.055L62.965 50.515zM59.276 49.792l0.009-0.032 0.004 0.003v0l0.002 0.002 0.253 0.181 0.03 0.037 3.951-0.607 0.264-0.534 0.068-0.069 0.022-0.048h-0.001l-0.03 0.012 0.002-0.005-0.002 0.001 0.015-0.025 0.017-0.033-0.035-0.019-0.04-0.003-0.004 0.001 0.021 0.028-0.201 0.031-2.515 0.539-1.922 0.437 0.02 0.033 0.065 0.065L59.276 49.792zM92.575 56.362c-0.035-0.032-0.06-0.077-0.064-0.13l0.003-0.271c-0.517-2.525-2.239-4.611-4.541-5.641l-0.388-0.147-0.612-0.163-1.236-0.194-1.216-0.05-1.189 0.05-0.024 0.002c-0.031 0-0.058-0.013-0.084-0.028l-0.295 0.067-0.611 0.163-0.664 0.254-0.706 0.315-0.018 0.01c-2.461 1.348-4.134 3.958-4.134 6.952 0 4.382 3.563 7.926 7.939 7.926 4.388 0 7.939-3.544 7.939-7.926C92.674 57.146 92.634 56.751 92.575 56.362zM26.526 50.186c-4.068 0-7.378 3.304-7.378 7.365 0 4.072 3.31 7.366 7.378 7.366 4.079 0 7.379-3.294 7.379-7.366C33.905 53.489 30.605 50.186 26.526 50.186z" fill="#374151" data-fill-palette-color="accent"></path></svg></g></svg></g><path d="M84.594 96.338L80.387 96.397 77.796 104.095 81.111 106.686 80.048 109.843 63.843 97.044 65.021 93.546 85.664 93.162ZM75.622 102.43L77.646 96.418 68.084 96.53ZM70.488 80.085L85.691 87.329 88.513 81.407 90.833 82.513 86.641 91.311 69.117 82.962ZM99.209 69.252L97.206 72.474 88.253 72.174 86.972 74.234 93.564 78.333 91.881 81.039 75.396 70.791 78.936 65.098C79.721 63.835 80.608 62.901 81.597 62.297 82.586 61.694 83.588 61.405 84.605 61.432 85.612 61.46 86.575 61.761 87.495 62.332V62.332C88.572 63.002 89.353 63.919 89.839 65.085 90.331 66.254 90.333 67.588 89.846 69.085V69.085ZM79.279 69.452L84.806 72.888 86.663 69.902C87.293 68.889 87.513 67.969 87.325 67.142 87.143 66.319 86.624 65.641 85.769 65.109V65.109C84.913 64.577 84.086 64.414 83.288 64.62 82.49 64.826 81.773 65.442 81.136 66.466V66.466ZM106.907 60.824C105.725 62.185 104.314 63.161 102.674 63.752 101.045 64.342 99.365 64.472 97.637 64.141 95.913 63.815 94.335 63.029 92.902 61.784V61.784C91.469 60.539 90.473 59.088 89.915 57.432 89.352 55.771 89.248 54.092 89.606 52.396 89.962 50.689 90.732 49.156 91.914 47.795V47.795C93.11 46.419 94.528 45.436 96.167 44.844 97.797 44.254 99.471 44.124 101.19 44.456 102.904 44.783 104.477 45.569 105.91 46.814V46.814C107.344 48.059 108.344 49.51 108.912 51.166 109.485 52.826 109.593 54.504 109.236 56.201 108.879 57.907 108.103 59.448 106.907 60.824ZM104.82 59.01C105.665 58.037 106.193 56.98 106.405 55.838 106.626 54.695 106.512 53.552 106.062 52.408 105.613 51.263 104.847 50.221 103.766 49.282V49.282C102.685 48.342 101.549 47.732 100.358 47.451 99.168 47.17 98.025 47.221 96.929 47.604 95.838 47.982 94.87 48.657 94.025 49.63V49.63C93.184 50.597 92.651 51.65 92.424 52.788 92.198 53.926 92.307 55.065 92.751 56.205 93.196 57.345 93.959 58.384 95.04 59.324V59.324C96.121 60.264 97.26 60.876 98.455 61.162 99.651 61.447 100.799 61.4 101.9 61.022 103.006 60.648 103.979 59.977 104.82 59.01ZM124.848 43.701L121.234 41.547 114.994 46.747 116.461 50.691 113.902 52.824 106.802 33.432 109.637 31.069 127.423 41.555ZM114.015 44.191L118.888 40.13 110.684 35.216ZM121.348 22.467L130.502 36.602 136.008 33.036 137.405 35.193 129.224 40.492 118.672 24.199ZM140.173 12.278L147.089 27.632 153.07 24.938 154.126 27.282 145.239 31.285 137.267 13.587ZM149.958 8.361L152.997 7.4 156.728 19.192C157.172 20.597 157.876 21.538 158.84 22.017 159.795 22.491 160.93 22.521 162.243 22.105V22.105C163.576 21.683 164.5 21.003 165.016 20.063 165.529 19.117 165.563 17.942 165.118 16.537V16.537L161.387 4.745 164.416 3.786 168.132 15.53C168.609 17.039 168.687 18.42 168.364 19.672 168.035 20.927 167.403 21.986 166.469 22.849 165.528 23.715 164.394 24.358 163.067 24.777V24.777C161.734 25.199 160.44 25.325 159.186 25.154 157.931 24.983 156.818 24.476 155.847 23.633 154.876 22.79 154.151 21.614 153.673 20.104V20.104ZM185.017 0.419L180.529 10.957 187.994 19.6 184.469 20.153 179.041 13.876 176.079 21.469 172.575 22.019 177.025 11.507 169.537 2.847 173.072 2.293 178.528 8.618 181.512 0.969ZM190.086 0.232L193.273 0.183 193.462 12.55C193.484 14.024 193.889 15.128 194.675 15.863 195.453 16.591 196.532 16.945 197.909 16.924V16.924C199.307 16.903 200.388 16.516 201.151 15.764 201.914 15.005 202.284 13.889 202.262 12.415V12.415L202.072 0.049 205.249 0 205.437 12.315C205.461 13.899 205.139 15.244 204.471 16.351 203.795 17.458 202.886 18.291 201.743 18.85 200.593 19.409 199.323 19.699 197.931 19.72V19.72C196.533 19.742 195.258 19.491 194.105 18.967 192.952 18.443 192.032 17.638 191.343 16.552 190.655 15.465 190.299 14.131 190.274 12.547V12.547ZM222.316 21.666L218.553 21.18 215.111 12.909 212.705 12.598 211.711 20.297 208.55 19.889 211.035 0.638 217.684 1.496C219.159 1.686 220.376 2.106 221.336 2.755 222.296 3.404 222.974 4.197 223.372 5.133 223.763 6.061 223.89 7.062 223.751 8.136V8.136C223.589 9.394 223.078 10.485 222.219 11.411 221.359 12.344 220.147 12.899 218.583 13.077V13.077ZM213.865 3.615L213.031 10.07 216.519 10.52C217.701 10.672 218.63 10.492 219.305 9.978 219.978 9.47 220.38 8.717 220.509 7.718V7.718C220.638 6.718 220.443 5.898 219.924 5.258 219.406 4.617 218.548 4.22 217.352 4.065V4.065ZM240.56 6.718L243.946 7.666 234.422 17.842 232.522 24.624 229.453 23.764 231.353 16.983 228.482 3.334 231.898 4.291 233.656 14.67ZM270.31 20.107L273.342 21.673 264.434 38.919 261.602 37.456 267.703 25.646 256.341 34.739 254.377 33.724 255.198 19.186 249.097 30.997 246.265 29.534 255.174 12.288 258.225 13.864 257.298 30.512ZM273.362 46.338C271.943 45.227 270.896 43.867 270.222 42.26 269.55 40.662 269.334 38.992 269.576 37.249 269.814 35.511 270.518 33.895 271.688 32.4V32.4C272.859 30.905 274.257 29.837 275.883 29.194 277.513 28.547 279.184 28.358 280.897 28.628 282.619 28.897 284.189 29.587 285.609 30.699V30.699C287.044 31.823 288.099 33.189 288.773 34.796 289.446 36.393 289.66 38.059 289.417 39.793 289.178 41.521 288.474 43.132 287.303 44.627V44.627C286.133 46.122 284.735 47.195 283.11 47.847 281.482 48.504 279.811 48.697 278.099 48.427 276.377 48.158 274.798 47.462 273.362 46.338ZM275.067 44.16C276.082 44.955 277.165 45.428 278.316 45.581 279.469 45.744 280.605 45.571 281.725 45.064 282.844 44.557 283.846 43.739 284.729 42.611V42.611C285.612 41.483 286.164 40.318 286.383 39.114 286.603 37.911 286.494 36.772 286.056 35.698 285.623 34.627 284.899 33.695 283.884 32.901V32.901C282.875 32.11 281.797 31.631 280.648 31.463 279.5 31.296 278.368 31.463 277.253 31.965 276.137 32.466 275.138 33.281 274.254 34.409V34.409C273.371 35.537 272.818 36.705 272.594 37.914 272.37 39.123 272.475 40.267 272.909 41.347 273.339 42.432 274.058 43.37 275.067 44.16ZM295.952 39.703L305.301 49.512 303.426 51.299 299.858 47.556 287.683 59.161 285.484 56.854 297.659 45.249 294.077 41.491ZM297.366 71.982C296.325 70.511 295.713 68.908 295.528 67.175 295.342 65.452 295.614 63.79 296.346 62.189 297.072 60.593 298.21 59.246 299.76 58.15V58.15C301.31 57.054 302.956 56.431 304.698 56.282 306.445 56.129 308.1 56.428 309.663 57.178 311.236 57.929 312.543 59.041 313.583 60.513V60.513C314.636 62.001 315.255 63.612 315.44 65.345 315.626 67.069 315.354 68.726 314.624 70.317 313.9 71.904 312.762 73.246 311.212 74.342V74.342C309.662 75.438 308.015 76.066 306.272 76.224 304.523 76.386 302.867 76.092 301.304 75.343 299.732 74.591 298.419 73.471 297.366 71.982ZM299.624 70.385C300.368 71.438 301.27 72.202 302.329 72.679 303.387 73.165 304.524 73.325 305.743 73.161 306.961 72.996 308.155 72.5 309.324 71.673V71.673C310.494 70.845 311.357 69.887 311.912 68.797 312.468 67.707 312.69 66.585 312.578 65.43 312.47 64.28 312.044 63.18 311.3 62.128V62.128C310.56 61.081 309.664 60.313 308.612 59.823 307.561 59.333 306.428 59.168 305.216 59.329 304.003 59.49 302.812 59.984 301.642 60.811V60.811C300.473 61.638 299.607 62.598 299.046 63.692 298.485 64.786 298.257 65.912 298.363 67.071 298.464 68.234 298.884 69.339 299.624 70.385ZM310.343 94.175L308.626 90.792 313.524 83.291 312.426 81.127 305.504 84.641 304.061 81.798 321.37 73.013 324.404 78.991C325.077 80.317 325.416 81.56 325.42 82.718 325.424 83.877 325.151 84.884 324.601 85.74 324.054 86.586 323.298 87.254 322.333 87.744V87.744C321.202 88.318 320.012 88.511 318.763 88.322 317.509 88.136 316.367 87.447 315.339 86.255V86.255ZM320.503 77.028L314.699 79.974 316.291 83.109C316.83 84.172 317.503 84.838 318.307 85.106 319.106 85.377 319.954 85.285 320.853 84.829V84.829C321.751 84.373 322.319 83.75 322.557 82.961 322.794 82.172 322.64 81.239 322.094 80.164V80.164ZM313.064 102.903C312.636 101.673 312.468 100.491 312.56 99.356 312.643 98.217 312.982 97.231 313.579 96.4 314.179 95.56 315.007 94.956 316.062 94.589V94.589L317.18 97.804C316.408 98.152 315.867 98.692 315.556 99.424 315.235 100.153 315.25 101.018 315.599 102.022V102.022C315.959 103.058 316.49 103.78 317.191 104.19 317.898 104.597 318.647 104.663 319.437 104.388V104.388C320.052 104.174 320.49 103.819 320.753 103.321 321.015 102.823 321.157 102.27 321.177 101.661 321.204 101.049 321.176 100.228 321.093 99.197V99.197C320.994 97.889 320.977 96.807 321.041 95.949 321.104 95.086 321.387 94.273 321.891 93.51 322.393 92.74 323.217 92.156 324.362 91.758V91.758C325.418 91.391 326.433 91.336 327.407 91.592 328.379 91.842 329.244 92.368 330.002 93.171 330.752 93.97 331.344 94.994 331.778 96.244V96.244C332.397 98.024 332.46 99.635 331.967 101.076 331.468 102.52 330.466 103.572 328.961 104.233V104.233L327.807 100.912C328.455 100.628 328.918 100.112 329.195 99.362 329.465 98.616 329.435 97.769 329.107 96.824V96.824C328.807 95.963 328.342 95.334 327.71 94.937 327.081 94.546 326.355 94.494 325.533 94.78V94.78C324.97 94.975 324.566 95.308 324.323 95.777 324.08 96.246 323.947 96.782 323.925 97.385 323.893 97.984 323.913 98.782 323.985 99.781V99.781C324.071 101.115 324.082 102.221 324.018 103.1 323.947 103.981 323.658 104.811 323.152 105.589 322.646 106.367 321.811 106.959 320.646 107.364V107.364C319.713 107.688 318.749 107.744 317.754 107.531 316.75 107.314 315.829 106.815 314.99 106.032 314.159 105.247 313.517 104.204 313.064 102.903ZM70.007 192.511L73.322 189.92 70.731 182.222 66.524 182.163 65.461 179.006 86.107 179.4 87.285 182.898 71.076 195.688ZM73.468 182.234L75.492 188.246 83.04 182.374ZM91.64 193.776L76.437 201.02 79.259 206.941 76.938 208.047 72.746 199.248 90.269 190.899ZM86.138 222.813L84.135 219.591 88.366 211.695 87.085 209.634 80.493 213.733 78.81 211.026 95.295 200.777 98.834 206.47C99.619 207.733 100.064 208.942 100.168 210.096 100.272 211.25 100.087 212.277 99.613 213.177 99.142 214.067 98.446 214.798 97.527 215.37V215.37C96.45 216.039 95.281 216.334 94.021 216.254 92.755 216.178 91.558 215.59 90.431 214.491V214.491ZM94.777 204.852L89.25 208.288 91.107 211.274C91.736 212.287 92.464 212.892 93.288 213.09 94.107 213.291 94.945 213.125 95.801 212.593V212.593C96.656 212.061 97.168 211.392 97.336 210.585 97.505 209.778 97.27 208.863 96.634 207.838V207.838ZM94.994 233.467C93.812 232.106 93.043 230.573 92.686 228.867 92.329 227.17 92.435 225.489 93.003 223.824 93.567 222.163 94.565 220.71 95.998 219.464V219.464C97.431 218.219 99.007 217.436 100.725 217.114 102.448 216.788 104.125 216.92 105.755 217.51 107.395 218.102 108.805 219.077 109.988 220.438V220.438C111.184 221.814 111.96 223.355 112.316 225.061 112.674 226.758 112.568 228.434 112 230.09 111.437 231.741 110.44 233.189 109.006 234.435V234.435C107.573 235.68 105.997 236.468 104.278 236.8 102.554 237.135 100.877 237.008 99.248 236.418 97.608 235.826 96.19 234.843 94.994 233.467ZM97.082 231.653C97.927 232.625 98.9 233.296 100.002 233.665 101.102 234.043 102.251 234.09 103.446 233.804 104.642 233.519 105.781 232.906 106.862 231.967V231.967C107.943 231.027 108.706 229.987 109.15 228.848 109.595 227.708 109.704 226.569 109.477 225.431 109.256 224.298 108.722 223.245 107.877 222.272V222.272C107.036 221.305 106.068 220.63 104.973 220.247 103.877 219.864 102.734 219.813 101.544 220.094 100.353 220.375 99.217 220.985 98.136 221.925V221.925C97.055 222.864 96.289 223.906 95.84 225.05 95.39 226.195 95.276 227.338 95.497 228.481 95.713 229.628 96.241 230.685 97.082 231.653ZM114.995 252.062L116.461 248.118 110.222 242.918 106.607 245.072 104.048 242.939 121.841 232.46 124.677 234.823 117.569 254.208ZM112.56 241.494L117.433 245.555 120.787 236.6ZM134.084 241.806L124.93 255.941 130.435 259.507 129.038 261.664 120.857 256.366 131.409 240.074ZM149.796 250.299L142.879 265.653 148.86 268.347 147.804 270.691 138.918 266.688 146.89 248.99ZM157.026 253.239L160.065 254.201 156.334 265.993C155.889 267.398 155.923 268.573 156.436 269.519 156.945 270.456 157.856 271.133 159.17 271.548V271.548C160.503 271.97 161.65 271.945 162.612 271.473 163.576 270.994 164.28 270.052 164.724 268.647V268.647L168.455 256.855 171.484 257.814 167.769 269.557C167.291 271.066 166.56 272.241 165.576 273.079 164.585 273.916 163.459 274.419 162.198 274.588 160.93 274.755 159.633 274.628 158.306 274.208V274.208C156.973 273.787 155.843 273.145 154.915 272.283 153.987 271.422 153.368 270.367 153.058 269.119 152.749 267.871 152.833 266.492 153.31 264.982V264.982ZM188.647 260.372L181.149 269.031 185.609 279.544 182.084 278.991 178.839 271.354 173.695 277.676 170.191 277.126 177.645 268.481 173.168 257.945 176.702 258.499 179.96 266.191 185.143 259.823ZM190.444 260.279L193.631 260.328 193.442 272.695C193.419 274.168 193.79 275.285 194.553 276.043 195.309 276.795 196.376 277.182 197.753 277.203V277.203C199.151 277.224 200.243 276.871 201.029 276.143 201.815 275.407 202.219 274.303 202.242 272.83V272.83L202.431 260.463 205.607 260.511 205.419 272.827C205.395 274.41 205.031 275.745 204.329 276.831 203.62 277.917 202.686 278.721 201.526 279.245 200.36 279.769 199.081 280.02 197.69 279.999V279.999C196.292 279.977 195.025 279.687 193.888 279.128 192.752 278.569 191.857 277.736 191.202 276.63 190.547 275.523 190.232 274.178 190.256 272.595V272.595ZM224.286 277.538L220.524 278.024 215.094 270.898 212.688 271.209 213.682 278.907 210.521 279.315 208.036 260.064 214.684 259.206C216.159 259.015 217.443 259.112 218.536 259.496 219.629 259.88 220.487 260.475 221.109 261.279 221.724 262.077 222.1 263.013 222.239 264.087V264.087C222.401 265.345 222.184 266.531 221.589 267.644 220.994 268.765 219.963 269.609 218.495 270.179V270.179ZM211.528 262.225L212.362 268.68 215.849 268.23C217.032 268.077 217.884 267.666 218.406 266.998 218.928 266.336 219.125 265.505 218.996 264.506V264.506C218.867 263.507 218.471 262.763 217.806 262.275 217.142 261.788 216.212 261.621 215.016 261.775V261.775ZM234.24 254.66L237.625 253.711 234.774 267.354 236.674 274.136 233.605 274.996 231.705 268.214 222.162 258.043 225.577 257.087 232.472 265.042ZM259.557 243.015L262.589 241.449 271.498 258.695 268.666 260.157 262.565 248.346 263.405 262.875 261.441 263.89 250.06 254.806 256.161 266.617 253.329 268.079 244.421 250.834 247.472 249.258 260.511 259.648ZM283.092 250.027C281.673 251.138 280.103 251.828 278.381 252.097 276.668 252.367 274.995 252.176 273.361 251.523 271.731 250.876 270.33 249.805 269.16 248.31V248.31C267.989 246.815 267.287 245.201 267.054 243.469 266.816 241.731 267.034 240.063 267.706 238.466 268.38 236.859 269.427 235.499 270.846 234.388V234.388C272.282 233.264 273.861 232.567 275.583 232.298 277.295 232.028 278.963 232.219 280.588 232.871 282.209 233.517 283.604 234.588 284.775 236.083V236.083C285.945 237.577 286.652 239.192 286.895 240.925 287.142 242.664 286.93 244.332 286.257 245.93 285.583 247.537 284.528 248.903 283.093 250.027ZM281.387 247.849C282.402 247.055 283.121 246.117 283.546 245.036 283.98 243.956 284.085 242.812 283.861 241.603 283.637 240.394 283.084 239.226 282.2 238.098V238.098C281.317 236.97 280.318 236.155 279.202 235.654 278.087 235.152 276.955 234.985 275.807 235.153 274.664 235.316 273.585 235.795 272.57 236.59V236.59C271.561 237.38 270.838 238.312 270.399 239.387 269.961 240.461 269.852 241.6 270.071 242.804 270.291 244.007 270.843 245.173 271.726 246.3V246.3C272.609 247.428 273.61 248.246 274.73 248.753 275.85 249.26 276.986 249.433 278.139 249.27 279.295 249.113 280.378 248.64 281.387 247.849ZM278.992 228.069L288.342 218.261 290.217 220.049 286.649 223.792 298.824 235.397 296.625 237.704 284.45 226.099 280.868 229.857ZM310.252 221.07C309.211 222.541 307.904 223.653 306.331 224.404 304.769 225.154 303.111 225.451 301.358 225.294 299.61 225.141 297.962 224.517 296.412 223.421V223.421C294.862 222.324 293.726 220.98 293.006 219.387 292.28 217.791 292.01 216.131 292.196 214.407 292.381 212.674 292.994 211.072 294.035 209.6V209.6C295.087 208.111 296.4 206.991 297.972 206.24 299.535 205.49 301.189 205.194 302.932 205.353 304.67 205.507 306.313 206.132 307.864 207.229V207.229C309.414 208.325 310.554 209.669 311.284 211.26 312.02 212.854 312.294 214.514 312.108 216.237 311.923 217.97 311.304 219.581 310.252 221.07ZM307.994 219.473C308.738 218.421 309.158 217.316 309.255 216.158 309.361 214.999 309.133 213.873 308.572 212.779 308.011 211.686 307.145 210.725 305.976 209.898V209.898C304.806 209.071 303.615 208.577 302.402 208.416 301.19 208.255 300.057 208.42 299.006 208.91 297.958 209.394 297.062 210.163 296.318 211.215V211.215C295.578 212.261 295.152 213.362 295.04 214.517 294.928 215.672 295.15 216.794 295.706 217.884 296.261 218.974 297.124 219.932 298.294 220.76V220.76C299.463 221.587 300.657 222.083 301.875 222.248 303.094 222.412 304.231 222.252 305.289 221.766 306.352 221.283 307.254 220.519 307.994 219.473ZM324.068 196.73L322.351 200.113 313.405 200.588 312.307 202.751 319.229 206.264 317.786 209.106 300.477 200.321 303.511 194.344C304.184 193.018 304.987 192.011 305.92 191.324 306.853 190.637 307.827 190.262 308.842 190.201 309.848 190.143 310.833 190.359 311.799 190.849V190.849C312.93 191.423 313.788 192.269 314.373 193.388 314.964 194.511 315.081 195.839 314.726 197.372V197.372ZM304.23 198.652L310.033 201.597 311.625 198.462C312.164 197.398 312.305 196.463 312.046 195.655 311.793 194.85 311.218 194.22 310.319 193.764V193.764C309.421 193.308 308.583 193.217 307.806 193.491 307.029 193.766 306.367 194.441 305.821 195.516V195.516ZM327.971 186.219C327.543 187.449 326.941 188.481 326.166 189.314 325.394 190.156 324.516 190.718 323.533 191 322.541 191.286 321.517 191.246 320.462 190.879V190.879L321.579 187.665C322.401 187.871 323.16 187.783 323.859 187.402 324.562 187.029 325.088 186.341 325.436 185.338V185.338C325.797 184.302 325.829 183.406 325.533 182.65 325.23 181.892 324.684 181.375 323.895 181.101V181.101C323.28 180.887 322.715 180.894 322.2 181.121 321.686 181.349 321.232 181.695 320.838 182.16 320.437 182.623 319.95 183.285 319.375 184.144V184.144C318.641 185.232 317.983 186.091 317.4 186.723 316.816 187.362 316.089 187.824 315.22 188.11 314.35 188.402 313.341 188.349 312.195 187.95V187.95C311.14 187.583 310.31 186.997 309.705 186.192 309.097 185.393 308.745 184.443 308.649 183.343 308.557 182.251 308.728 181.081 309.162 179.831V179.831C309.781 178.051 310.731 176.749 312.012 175.924 313.3 175.102 314.738 174.898 316.328 175.313V175.313L315.173 178.634C314.489 178.454 313.805 178.572 313.124 178.988 312.449 179.407 311.947 180.088 311.618 181.034V181.034C311.319 181.895 311.293 182.677 311.542 183.38 311.793 184.077 312.33 184.568 313.152 184.854V184.854C313.715 185.05 314.238 185.04 314.72 184.822 315.202 184.605 315.638 184.267 316.03 183.809 316.426 183.359 316.906 182.72 317.469 181.893V181.893C318.229 180.793 318.907 179.918 319.503 179.269 320.105 178.622 320.846 178.15 321.725 177.854 322.605 177.557 323.627 177.612 324.793 178.017V178.017C325.725 178.341 326.516 178.895 327.164 179.68 327.817 180.473 328.23 181.436 328.402 182.57 328.567 183.701 328.423 184.918 327.971 186.219ZM60.703 141.969C60.703 137.821 64.066 134.458 68.215 134.458 72.363 134.458 75.726 137.821 75.726 141.969 75.726 146.118 72.363 149.481 68.215 149.481 64.066 149.481 60.703 146.118 60.703 141.969ZM319.794 141.969C319.794 137.821 323.157 134.458 327.305 134.458 331.454 134.458 334.817 137.821 334.817 141.969 334.817 146.118 331.454 149.481 327.305 149.481 323.157 149.481 319.794 146.118 319.794 141.969Z" fill="#374151" data-fill-palette-color="primary"></path></svg></g></svg></g></svg></g><g></g></svg></g><defs></defs></svg><rect width="395.52" height="280" fill="none" stroke="none" visibility="hidden"></rect></g></svg></g></svg>